<?xml version="1.0" standalone="no"?>
<!DOCTYPE svg PUBLIC "-//W3C//DTD SVG 20010904//EN"
 "http://www.w3.org/TR/2001/REC-SVG-20010904/DTD/svg10.dtd">
<svg version="1.0" xmlns="http://www.w3.org/2000/svg"
 width="556.000000pt" height="556.000000pt" viewBox="0 0 556.000000 556.000000"
 preserveAspectRatio="xMidYMid meet">
<metadata>
Created by potrace 1.14, written by Peter Selinger 2001-2017
</metadata>
<g transform="translate(0.000000,556.000000) scale(0.100000,-0.100000)"
fill="#000000" stroke="none">
<path d="M2725 5544 c-20 -7 -38 -14 -40 -16 -7 -6 -847 -832 -1005 -988
-1161 -1144 -1158 -1141 -1183 -1193 -14 -29 -29 -63 -33 -77 -4 -14 -8 -168
-9 -342 l-1 -318 26 -1 c127 -2 1132 0 1135 3 2 2 5 75 6 163 1 132 4 166 19
195 14 27 861 875 1072 1073 66 62 86 56 211 -65 621 -606 996 -983 1009
-1016 10 -26 15 -83 16 -191 0 -84 3 -155 6 -158 3 -3 1025 -7 1136 -4 l26 1
-2 318 c-1 297 -2 320 -22 371 -12 29 -32 70 -46 90 -22 31 -339 346 -1016
1011 -87 85 -377 371 -645 635 -268 264 -499 488 -513 497 -36 22 -102 28
-147 12z"/>
<path d="M2589 3164 c-162 -41 -287 -111 -399 -224 -101 -101 -164 -204 -209
-340 -29 -86 -36 -152 -34 -290 2 -171 43 -298 145 -451 194 -293 592 -433
935 -328 364 111 607 446 598 824 -3 101 -23 221 -44 270 -5 11 -21 46 -35 77
-94 216 -313 397 -551 459 -122 31 -288 33 -406 3z m309 -413 c130 -37 242
-142 287 -271 9 -25 18 -76 20 -115 9 -192 -106 -365 -285 -425 -266 -90 -541
97 -555 376 -6 124 30 228 111 314 57 61 95 85 180 115 72 25 166 28 242 6z"/>
<path d="M457 2333 c-2 -5 -3 -74 -2 -154 1 -132 4 -149 24 -182 43 -70 86
-88 241 -102 36 -3 81 -8 100 -10 32 -4 88 -9 195 -19 22 -2 72 -7 110 -11 41
-4 80 -14 94 -24 29 -20 101 -190 101 -236 -1 -24 -37 -74 -186 -255 -102
-124 -194 -242 -205 -262 -23 -45 -24 -103 -4 -151 21 -52 393 -427 445 -449
52 -23 101 -23 149 1 30 14 272 200 301 231 38 41 205 162 223 162 12 0 52
-14 90 -31 37 -17 72 -31 78 -31 20 0 67 -30 74 -47 9 -24 12 -45 20 -128 8
-100 12 -138 31 -310 1 -16 6 -59 9 -95 3 -36 11 -80 17 -98 14 -47 62 -99
104 -112 22 -8 134 -12 324 -12 285 0 290 1 332 24 55 30 85 75 93 141 11 89
20 169 30 282 4 33 8 76 10 95 2 19 7 67 10 105 6 59 21 135 29 135 1 0 50 20
108 44 59 24 115 43 125 41 10 -2 21 -4 24 -4 6 -1 109 -80 119 -91 10 -12
327 -267 359 -290 41 -29 130 -33 176 -8 44 23 415 399 437 443 23 44 25 98 6
145 -12 29 -85 131 -107 150 -4 3 -53 64 -111 135 -57 72 -123 154 -147 183
l-43 52 21 53 c11 28 32 81 45 117 23 61 44 89 68 91 6 0 18 2 26 3 13 3 90
11 210 21 33 3 108 11 190 20 19 2 64 7 100 10 83 8 140 34 173 76 34 45 37
61 41 222 l3 137 -584 0 -583 0 -1 -52 c-2 -75 -6 -113 -25 -198 -97 -448
-449 -796 -907 -896 -100 -22 -321 -26 -422 -8 -217 39 -400 124 -560 258 -63
53 -80 70 -149 151 -161 188 -261 451 -270 705 l-1 35 -577 3 c-317 1 -579 -1
-581 -5z"/>
</g>
</svg>
